<?xml version="1.0" standalone="no"?>
<!DOCTYPE svg PUBLIC "-//W3C//DTD SVG 20010904//EN"
 "http://www.w3.org/TR/2001/REC-SVG-20010904/DTD/svg10.dtd">
<svg version="1.0" xmlns="http://www.w3.org/2000/svg"
 width="316.000000pt" height="177.000000pt" viewBox="0 0 316.000000 177.000000"
 preserveAspectRatio="xMidYMid meet">

<g transform="translate(0.000000,177.000000) scale(0.100000,-0.100000)"
fill="#000000" stroke="none">
<path d="M725 1620 c-10 -16 -85 -483 -85 -530 1 -93 66 -176 162 -205 115
-34 243 -8 323 66 67 62 92 126 125 322 16 94 36 210 44 257 8 47 12 88 7 93
-4 4 -39 7 -77 5 l-69 -3 -27 -150 c-15 -82 -34 -188 -43 -235 -23 -129 -34
-161 -67 -192 -42 -39 -107 -40 -137 -2 -27 34 -26 67 4 239 30 165 55 315 55
333 0 15 -205 18 -215 2z"/>
<path d="M1395 1621 c-4 -7 -18 -76 -31 -154 -75 -431 -82 -467 -93 -526 -6
-30 -9 -56 -6 -59 3 -3 52 13 110 34 119 44 109 30 136 184 l14 75 131 6 c119
5 135 7 177 32 57 34 93 84 108 154 11 46 10 62 -4 106 -19 59 -65 112 -117
135 -45 20 -413 31 -425 13z m324 -155 c33 -30 29 -90 -8 -127 -27 -26 -36
-29 -95 -29 -62 0 -66 1 -66 23 0 43 22 142 33 149 22 14 115 3 136 -16z"/>
<path d="M2134 1579 c-14 -28 -52 -108 -84 -178 -32 -69 -76 -165 -99 -213
-23 -48 -41 -91 -41 -96 0 -8 105 12 146 28 15 6 41 54 90 170 64 148 86 182
90 140 14 -124 26 -221 30 -246 l4 -31 83 4 c106 6 109 7 102 40 -2 16 -16 96
-30 178 -14 83 -30 174 -36 203 l-10 52 -110 0 -109 0 -26 -51z"/>
<path d="M2325 1111 c-29 -4 -49 -11 -48 -17 1 -7 5 -43 9 -80 11 -114 8 -111
115 -110 106 1 107 3 91 80 -6 28 -14 70 -17 94 l-7 42 -46 -2 c-26 0 -69 -4
-97 -7z"/>
<path d="M2021 1059 c-13 -5 -55 -16 -93 -25 -37 -9 -66 -19 -64 -23 3 -4 -5
-28 -18 -54 -16 -30 -20 -47 -12 -50 14 -5 144 -2 148 4 18 25 73 161 65 158
-1 0 -13 -5 -26 -10z"/>
<path d="M2330 469 c0 -5 5 -7 10 -4 6 3 10 8 10 11 0 2 -4 4 -10 4 -5 0 -10
-5 -10 -11z"/>
<path d="M90 431 c-16 -31 -13 -88 6 -95 30 -11 71 -6 87 12 18 19 27 91 12
92 -5 1 -14 -17 -18 -39 -9 -43 -34 -65 -61 -55 -13 5 -15 16 -10 55 7 52 2
62 -16 30z"/>
<path d="M252 441 c-16 -10 -29 -111 -14 -111 6 0 14 16 18 35 3 19 9 35 13
35 3 0 15 -16 25 -35 31 -57 46 -48 61 38 5 29 3 37 -10 37 -10 0 -15 -10 -15
-30 0 -39 -14 -38 -43 4 -15 22 -27 32 -35 27z"/>
<path d="M450 438 c0 -8 7 -36 16 -62 11 -32 21 -46 32 -44 20 4 85 105 72
113 -5 3 -23 -15 -39 -41 -27 -44 -29 -46 -40 -26 -6 11 -11 27 -11 35 0 8 -7
20 -15 27 -12 10 -15 10 -15 -2z"/>
<path d="M605 438 c-3 -7 -9 -34 -14 -60 l-8 -48 53 0 c30 0 54 4 54 10 0 5
-15 8 -32 6 -39 -5 -49 0 -41 19 3 9 18 15 38 15 47 0 53 18 8 22 -52 4 -48
22 5 26 23 2 40 7 37 13 -9 14 -95 11 -100 -3z"/>
<path d="M752 438 c-15 -20 -27 -108 -13 -108 6 0 13 11 17 25 8 32 27 32 58
-2 26 -28 49 -26 25 3 -11 14 -11 18 4 29 38 27 8 65 -51 65 -16 0 -34 -6 -40
-12z m83 -18 c3 -6 -6 -15 -20 -20 -38 -14 -45 -13 -45 10 0 15 7 20 29 20 17
0 33 -5 36 -10z"/>
<path d="M912 438 c-21 -21 -13 -39 23 -54 19 -8 35 -18 35 -24 0 -18 -20 -20
-50 -5 -25 13 -30 13 -30 1 0 -17 21 -26 60 -26 56 0 64 53 9 65 -16 4 -29 13
-29 21 0 16 23 18 51 4 12 -7 19 -7 19 -1 0 26 -67 40 -88 19z"/>
<path d="M1111 436 c-6 -7 -14 -34 -17 -60 l-7 -46 47 0 c51 0 86 25 86 60 0
46 -80 81 -109 46z m80 -27 c9 -17 7 -25 -12 -45 -25 -27 -28 -28 -48 -15 -10
6 -12 19 -7 45 6 30 11 36 31 36 14 0 29 -9 36 -21z"/>
<path d="M1274 395 c-35 -56 -40 -83 -9 -51 18 17 57 15 81 -5 8 -6 17 -10 19
-7 8 8 -30 111 -42 115 -7 3 -29 -21 -49 -52z m56 -5 c0 -13 -7 -20 -20 -20
-22 0 -23 1 -14 24 9 23 34 20 34 -4z"/>
<path d="M1422 438 c-5 -7 -13 -34 -17 -60 l-7 -48 44 0 c56 0 88 22 88 60 0
48 -79 82 -108 48z m78 -27 c13 -25 5 -46 -24 -59 -33 -15 -49 -1 -40 34 4 16
9 32 11 37 8 14 42 7 53 -12z"/>
<path d="M1631 428 c-17 -46 -22 -98 -11 -98 7 0 14 9 17 20 4 14 14 20 32 20
31 0 71 25 71 45 0 19 -32 35 -70 35 -22 0 -33 -6 -39 -22z m76 -15 c5 -13
-43 -30 -54 -20 -3 4 -3 13 1 22 7 19 47 17 53 -2z"/>
<path d="M1785 425 c-45 -44 -23 -95 41 -95 64 0 100 71 52 104 -32 23 -65 20
-93 -9z m84 -17 c11 -30 5 -43 -23 -56 -30 -14 -68 10 -59 36 17 47 67 59 82
20z"/>
<path d="M2072 429 c-5 -13 -12 -41 -16 -63 -11 -58 15 -42 31 20 13 52 1 87
-15 43z"/>
<path d="M2124 439 c-3 -5 5 -9 16 -9 21 0 21 -3 15 -51 -6 -41 -4 -51 6 -47
8 2 18 26 23 51 8 40 13 47 33 47 13 0 22 4 18 9 -7 12 -103 12 -111 0z"/>
<path d="M2274 442 c-7 -4 -15 -31 -19 -59 l-7 -53 58 0 c31 0 54 3 50 8 -4 4
-16 8 -27 8 -10 1 -26 2 -34 3 -8 0 -15 8 -15 16 0 10 10 15 34 15 19 0 38 5
41 10 4 6 -8 10 -29 10 -25 0 -36 4 -36 15 0 11 11 15 40 15 22 0 40 4 40 9 0
10 -81 13 -96 3z"/>
<path d="M2415 425 c-30 -29 -31 -49 -5 -75 29 -29 100 -25 100 6 0 18 -5 18
-34 -1 -22 -14 -25 -14 -40 0 -21 21 -20 38 2 58 22 20 43 22 60 5 6 -6 15 -8
19 -4 11 11 -27 36 -54 36 -13 0 -35 -11 -48 -25z"/>
<path d="M2805 438 c-27 -15 -35 -28 -35 -60 0 -44 64 -65 106 -34 28 21 11
30 -24 12 -28 -14 -32 -14 -46 0 -21 20 -20 37 2 57 22 20 43 22 60 5 17 -17
28 -2 12 17 -15 18 -47 19 -75 3z"/>
<path d="M2946 394 c-38 -57 -41 -81 -7 -50 21 19 69 15 82 -6 16 -25 20 1 8
44 -13 45 -26 68 -39 68 -4 0 -24 -25 -44 -56z m54 -4 c0 -11 -7 -20 -15 -20
-15 0 -21 21 -8 33 12 13 23 7 23 -13z"/>
<path d="M397 433 c-11 -19 -18 -103 -8 -103 14 0 18 9 26 63 5 31 4 47 -3 47
-6 0 -13 -3 -15 -7z"/>
<path d="M1036 403 c-8 -52 -7 -73 3 -73 5 0 14 20 20 44 14 58 14 66 -3 66
-8 0 -16 -15 -20 -37z"/>
<path d="M1935 403 c-12 -70 -13 -68 38 -71 26 -2 47 1 47 6 0 5 -10 8 -22 7
-40 -3 -45 3 -38 50 5 34 4 45 -6 45 -7 0 -16 -17 -19 -37z"/>
<path d="M2560 423 c0 -10 -3 -35 -6 -55 -8 -49 13 -51 22 -3 3 19 9 35 13 35
3 0 16 -16 29 -35 34 -53 43 -48 58 38 8 45 -13 52 -22 7 -4 -16 -10 -30 -15
-30 -4 0 -16 14 -26 30 -19 33 -53 41 -53 13z"/>
<path d="M2716 423 c-3 -10 -8 -35 -12 -57 -4 -29 -2 -37 7 -34 15 5 26 39 28
81 1 30 -15 37 -23 10z"/>
<path d="M411 232 c-6 -11 -13 -38 -17 -61 l-7 -41 51 0 c41 0 54 4 66 22 19
27 21 62 4 76 -7 6 -29 13 -50 17 -30 6 -38 4 -47 -13z m73 -18 c9 -8 16 -19
16 -23 0 -17 -27 -41 -50 -43 -19 -2 -26 2 -28 19 -4 28 14 63 33 63 7 0 21
-7 29 -16z"/>
<path d="M578 242 c-10 -2 -18 -11 -19 -20 0 -15 -4 -37 -11 -74 -2 -9 14 -14
55 -16 66 -3 80 15 15 20 -24 2 -43 8 -43 13 0 6 19 11 43 13 51 4 57 22 7 22
-24 0 -35 5 -35 15 0 10 10 15 34 15 19 0 37 4 41 9 5 9 -48 11 -87 3z"/>
<path d="M814 242 c-6 -4 -25 -29 -43 -55 -32 -48 -36 -72 -7 -48 22 19 65 20
82 3 21 -20 26 -10 18 32 -7 43 -34 79 -50 68z m20 -47 c3 -9 -1 -18 -10 -22
-19 -7 -28 2 -21 22 8 19 23 19 31 0z"/>
<path d="M936 229 c-30 -24 -35 -69 -10 -90 20 -17 78 -17 98 0 27 22 20 51
-11 50 -16 0 -22 -3 -15 -6 27 -11 12 -33 -22 -33 -26 0 -36 5 -41 20 -12 39
37 71 75 50 28 -15 40 -2 16 16 -28 20 -59 17 -90 -7z"/>
<path d="M1294 242 c-6 -4 -25 -29 -43 -55 -34 -49 -35 -73 -4 -44 19 17 72
13 85 -7 14 -22 18 3 7 47 -12 49 -28 70 -45 59z m16 -52 c0 -11 -7 -20 -15
-20 -15 0 -21 21 -8 33 12 13 23 7 23 -13z"/>
<path d="M1412 234 c-27 -19 -21 -31 24 -50 19 -8 34 -19 34 -24 0 -14 -54
-12 -69 3 -10 10 -12 8 -9 -7 5 -29 53 -42 83 -22 36 24 31 41 -16 60 -31 13
-39 20 -31 28 9 9 18 8 38 -1 33 -15 46 -5 20 15 -26 18 -46 18 -74 -2z"/>
<path d="M1556 227 c-30 -30 -33 -58 -8 -79 30 -27 57 -30 83 -9 13 11 21 23
17 27 -4 4 -14 1 -22 -5 -26 -21 -61 -9 -64 21 -4 36 33 57 68 38 12 -6 24 -9
28 -6 10 10 -12 25 -45 32 -26 5 -37 1 -57 -19z"/>
<path d="M2050 230 c-5 -10 -12 -36 -16 -59 l-7 -41 57 0 c31 0 56 5 56 10 0
6 -18 10 -40 10 -29 0 -40 4 -40 15 0 11 11 15 40 15 22 0 40 5 40 10 0 6 -16
10 -36 10 -48 0 -40 23 12 31 47 7 43 11 -14 14 -32 2 -45 -1 -52 -15z"/>
<path d="M2192 230 c-15 -41 -22 -100 -11 -100 5 0 12 8 15 18 19 59 19 59 45
19 29 -44 45 -47 52 -8 3 16 9 40 13 55 5 20 2 26 -10 26 -10 0 -16 -9 -16
-23 0 -40 -13 -40 -46 0 l-32 38 -10 -25z"/>
<path d="M2344 239 c-2 -4 6 -9 17 -12 14 -4 19 -11 15 -24 -18 -60 -18 -73
-2 -73 9 0 16 6 16 13 0 6 5 29 11 50 7 27 15 37 30 37 11 0 18 4 14 9 -6 10
-95 10 -101 0z"/>
<path d="M2484 232 c-8 -7 -14 -23 -14 -35 0 -12 -3 -32 -6 -44 -6 -22 -4 -23
50 -23 31 0 56 5 56 10 0 6 -18 10 -40 10 -29 0 -40 4 -40 15 0 11 11 15 40
15 22 0 40 5 40 10 0 6 -16 10 -36 10 -48 0 -40 24 9 28 20 2 37 7 37 11 0 13
-82 7 -96 -7z"/>
<path d="M2638 239 c-28 -16 -21 -39 17 -55 19 -8 35 -19 35 -24 0 -14 -54
-12 -69 3 -10 10 -12 8 -9 -7 5 -29 53 -42 83 -22 33 22 31 33 -10 57 -19 12
-35 25 -35 30 0 13 34 11 48 -3 6 -6 15 -8 19 -4 10 9 -25 36 -46 36 -9 0 -24
-5 -33 -11z"/>
<path d="M1086 218 c-11 -44 -6 -67 19 -84 37 -24 81 -4 95 45 14 49 13 61 -5
61 -9 0 -15 -10 -15 -26 0 -38 -18 -64 -45 -64 -31 0 -35 9 -25 53 6 28 5 37
-5 37 -7 0 -15 -10 -19 -22z"/>
<path d="M1711 194 c-42 -61 -40 -82 2 -49 20 14 60 12 65 -5 2 -5 10 -10 19
-10 10 0 13 6 8 23 -30 103 -48 111 -94 41z m56 -8 c-4 -9 -13 -16 -22 -16
-18 0 -19 5 -4 32 13 24 35 9 26 -16z"/>
<path d="M1857 233 c-3 -5 -8 -29 -12 -55 l-7 -48 51 0 c28 0 51 5 51 10 0 6
-16 10 -36 10 l-36 0 6 45 c5 28 3 45 -3 45 -5 0 -12 -3 -14 -7z"/>
<path d="M1987 233 c-12 -19 -19 -103 -9 -103 11 0 32 60 32 93 0 17 -15 23
-23 10z"/>
</g>
</svg>
